<svg width="67" height="67" viewBox="0 0 67 67" fill="none" xmlns="http://www.w3.org/2000/svg">
<path d="M56.8977 30.3594L52.3438 25.8086V14.6562C52.3438 12.9289 50.9305 11.5156 49.2031 11.5156H46.0625C44.3352 11.5156 42.9219 12.9289 42.9219 14.6562V16.393L36.6406 10.118C35.7832 9.30777 34.9981 8.375 33.5 8.375C32.0019 8.375 31.2168 9.30777 30.3594 10.118L10.1023 30.3594C9.12247 31.3801 8.375 32.1244 8.375 33.5C8.375 35.2682 9.73175 36.6406 11.5156 36.6406H14.6562V55.4844C14.6562 57.2117 16.0695 58.625 17.7969 58.625H24.0781C25.8126 58.625 27.2188 57.2189 27.2188 55.4844V42.9219C27.2188 41.1945 28.632 39.7812 30.3594 39.7812H36.6406C38.368 39.7812 39.7812 41.1945 39.7812 42.9219V55.4844C39.7812 57.2189 39.617 58.625 41.3516 58.625H49.2031C50.9305 58.625 52.3438 57.2117 52.3438 55.4844V36.6406H55.4844C57.2683 36.6406 58.625 35.2682 58.625 33.5C58.625 32.1244 57.8775 31.3801 56.8977 30.3594Z" stroke="white" stroke-width="5" stroke-linejoin="round"/>
</svg>
