<svg width="568" height="92" viewBox="0 0 568 92" fill="none" xmlns="http://www.w3.org/2000/svg">
<path d="M15.4375 90C11.1458 90 7.875 89.4583 5.625 88.375C3.41667 87.2917 1.91667 85.5208 1.125 83.0625C0.375 80.6042 0 77.3333 0 73.25V17.125C0 12.9583 0.375 9.66667 1.125 7.25C1.91667 4.79167 3.41667 3.04167 5.625 2C7.875 0.916667 11.1458 0.375 15.4375 0.375H32.625C42.625 0.375 50.3125 2.20833 55.6875 5.875C61.0625 9.54167 63.75 14.7083 63.75 21.375C63.75 24.6667 63 27.6667 61.5 30.375C60 33.0833 58.0208 35.3958 55.5625 37.3125C53.1458 39.2292 50.5 40.6667 47.625 41.625V41.875C51.2917 42.375 54.6042 43.5833 57.5625 45.5C60.5208 47.375 62.875 49.8333 64.625 52.875C66.4167 55.875 67.3125 59.3333 67.3125 63.25C67.3125 69.0833 65.8958 74 63.0625 78C60.2708 81.9583 56.3958 84.9583 51.4375 87C46.5208 89 40.8542 90 34.4375 90H15.4375ZM20.1875 67.3125C20.1875 70.1042 20.6875 72.1042 21.6875 73.3125C22.6875 74.5208 24.5625 75.125 27.3125 75.125H32.0625C36.2708 75.125 39.6458 74.0417 42.1875 71.875C44.7708 69.7083 46.0625 66.75 46.0625 63C46.0625 59.4167 44.8125 56.6042 42.3125 54.5625C39.8125 52.5208 36.5833 51.5 32.625 51.5H32.6875C31.6875 51.5 30.9375 51.3542 30.4375 51.0625C29.3542 50.3542 28.2292 49.5417 27.0625 48.625C25.9375 47.6667 24.7083 46.5208 23.375 45.1875C22.9583 44.6458 22.75 44.25 22.75 44C22.75 43.6667 22.9583 43.2708 23.375 42.8125C24.7083 41.4792 25.9375 40.3333 27.0625 39.375C28.2292 38.4167 29.3542 37.6042 30.4375 36.9375C31.0208 36.6458 31.7708 36.5 32.6875 36.5H32.625C35.0833 36.5 37.3333 35.5833 39.375 33.75C41.4583 31.9167 42.5 29.0417 42.5 25.125C42.5 21.1667 41.3958 18.5417 39.1875 17.25C36.9792 15.9167 34.1458 15.25 30.6875 15.25H27.3125C24.5625 15.25 22.6875 15.8333 21.6875 17C20.6875 18.1667 20.1875 20.1667 20.1875 23V67.3125Z" fill="#7F35D4"/>
<path d="M91.125 91.1719C86.5312 91.1719 82.875 89.8906 80.1562 87.3281C77.4688 84.7344 76.125 81.1719 76.125 76.6406C76.125 74.2969 76.5469 72.125 77.3906 70.125C78.2656 68.0938 79.7656 66.3125 81.8906 64.7812C84.0469 63.2188 87.0469 61.9688 90.8906 61.0312C94.7656 60.0938 99.7031 59.5469 105.703 59.3906C105.703 56.5469 104.984 54.5 103.547 53.25C102.141 52 100.016 51.375 97.1719 51.375C94.6094 51.375 92.5156 51.8125 90.8906 52.6875C89.2656 53.5625 88.25 54.1562 87.8438 54.4688C87.4062 54.8438 86.875 54.9844 86.25 54.8906C85.4062 54.7656 84.5 54.5469 83.5312 54.2344C82.5938 53.9219 81.5781 53.5625 80.4844 53.1562C80.3281 53.0938 80.1562 53 79.9688 52.875C79.7812 52.7188 79.6719 52.5 79.6406 52.2188C79.6406 52.0625 79.6562 51.875 79.6875 51.6562C79.7188 51.4062 79.7969 50.9688 79.9219 50.3438C80.0469 49.7188 80.2344 48.9531 80.4844 48.0469C80.7344 47.1094 80.9688 46.3906 81.1875 45.8906C81.4688 45.3594 81.9375 44.8594 82.5938 44.3906C83.125 43.9531 84.7344 43.25 87.4219 42.2812C90.1094 41.3125 94 40.8281 99.0938 40.8281C113.125 40.8281 120.141 47.6562 120.141 61.3125V87.8438C120.141 88.4375 119.969 88.9531 119.625 89.3906C119.312 89.7969 118.766 90 117.984 90H110.953C110.453 90 110 89.9375 109.594 89.8125C109.219 89.6562 108.859 89.375 108.516 88.9688L105.609 85.2188H105.281C103.844 87.3125 101.906 88.8281 99.4688 89.7656C97.0625 90.7031 94.2812 91.1719 91.125 91.1719ZM96.2812 80.2969C99.1562 80.2969 101.328 79.5625 102.797 78.0938C104.266 76.625 105.203 75.1094 105.609 73.5469V68.3438C101.266 68.3438 98 68.6875 95.8125 69.375C93.6562 70.0312 92.2188 70.9062 91.5 72C90.7812 73.0625 90.4219 74.2188 90.4219 75.4688C90.4219 77.2812 90.9844 78.5469 92.1094 79.2656C93.2344 79.9531 94.625 80.2969 96.2812 80.2969Z" fill="#7F35D4"/>
<path d="M147.141 50.9062H147.328C149.672 44.4062 153.891 41.1562 159.984 41.1562C160.766 41.1562 161.406 41.2031 161.906 41.2969C162.406 41.3594 162.75 41.4219 162.938 41.4844C163.406 41.6406 163.641 42 163.641 42.5625V53.8594C163.641 54.8281 163.078 55.0938 161.953 54.6562C161.578 54.5 161.031 54.3438 160.312 54.1875C159.625 54 158.656 53.9062 157.406 53.9062C154.188 53.9062 151.672 55.0938 149.859 57.4688C148.047 59.8125 147.141 63.0156 147.141 67.0781V87.5156C147.141 88.4531 146.938 89.1094 146.531 89.4844C146.156 89.8281 145.5 90 144.562 90H134.906C133.969 90 133.297 89.8281 132.891 89.4844C132.516 89.1094 132.328 88.4531 132.328 87.5156V48.2344C132.328 47.4844 132.484 46.9062 132.797 46.5C133.453 45.625 134.234 44.7344 135.141 43.8281C136.078 42.9219 137.219 41.9531 138.562 40.9219C138.812 40.7344 139.062 40.6094 139.312 40.5469C139.562 40.4844 139.781 40.4531 139.969 40.4531C140.406 40.4531 140.844 40.6094 141.281 40.9219C143.875 42.9531 145.688 44.6875 146.719 46.125C147 46.5 147.141 46.9375 147.141 47.4375V50.9062Z" fill="#7F35D4"/>
<path d="M185.484 50.9062H185.672C188.016 44.4062 192.234 41.1562 198.328 41.1562C199.109 41.1562 199.75 41.2031 200.25 41.2969C200.75 41.3594 201.094 41.4219 201.281 41.4844C201.75 41.6406 201.984 42 201.984 42.5625V53.8594C201.984 54.8281 201.422 55.0938 200.297 54.6562C199.922 54.5 199.375 54.3438 198.656 54.1875C197.969 54 197 53.9062 195.75 53.9062C192.531 53.9062 190.016 55.0938 188.203 57.4688C186.391 59.8125 185.484 63.0156 185.484 67.0781V87.5156C185.484 88.4531 185.281 89.1094 184.875 89.4844C184.5 89.8281 183.844 90 182.906 90H173.25C172.312 90 171.641 89.8281 171.234 89.4844C170.859 89.1094 170.672 88.4531 170.672 87.5156V48.2344C170.672 47.4844 170.828 46.9062 171.141 46.5C171.797 45.625 172.578 44.7344 173.484 43.8281C174.422 42.9219 175.562 41.9531 176.906 40.9219C177.156 40.7344 177.406 40.6094 177.656 40.5469C177.906 40.4844 178.125 40.4531 178.312 40.4531C178.75 40.4531 179.188 40.6094 179.625 40.9219C182.219 42.9531 184.031 44.6875 185.062 46.125C185.344 46.5 185.484 46.9375 185.484 47.4375V50.9062Z" fill="#7F35D4"/>
<path d="M206.859 26.25C206.859 25.8438 206.984 25.4844 207.234 25.1719C207.484 24.8594 207.812 24.4531 208.219 23.9531C209.094 22.9531 210.109 21.9062 211.266 20.8125C212.422 19.6875 213.594 18.6094 214.781 17.5781C215.531 16.9844 216.094 16.6875 216.469 16.6875C216.844 16.6875 217.422 16.9844 218.203 17.5781C220.734 19.7656 222.891 21.8906 224.672 23.9531C225.078 24.4219 225.406 24.8281 225.656 25.1719C225.938 25.4844 226.078 25.8438 226.078 26.25C226.078 26.6562 225.938 27.0156 225.656 27.3281C225.406 27.6406 225.062 28.0625 224.625 28.5938C223.781 29.5625 222.797 30.6094 221.672 31.7344C220.547 32.8281 219.391 33.875 218.203 34.875C217.766 35.25 217.422 35.5 217.172 35.625C216.922 35.7188 216.688 35.7656 216.469 35.7656C216.25 35.7656 216.016 35.7188 215.766 35.625C215.547 35.5 215.188 35.25 214.688 34.875C213.438 33.875 212.266 32.8281 211.172 31.7344C210.078 30.6094 209.094 29.5312 208.219 28.5C207.812 28 207.484 27.6094 207.234 27.3281C206.984 27.0156 206.859 26.6562 206.859 26.25ZM223.828 87.5156C223.828 88.4531 223.625 89.1094 223.219 89.4844C222.844 89.8281 222.188 90 221.25 90H211.594C210.656 90 209.984 89.8281 209.578 89.4844C209.203 89.1094 209.016 88.4531 209.016 87.5156V44.4844C209.016 43.5469 209.203 42.9062 209.578 42.5625C209.984 42.1875 210.656 42 211.594 42H221.25C222.188 42 222.844 42.1875 223.219 42.5625C223.625 42.9062 223.828 43.5469 223.828 44.4844V87.5156Z" fill="#7F35D4"/>
<path d="M260.109 91.1719C254.828 91.1719 250.234 90.3281 246.328 88.6406C242.422 86.9219 239.391 84.2656 237.234 80.6719C235.078 77.0781 234 72.4375 234 66.75C234 58.2188 236.188 51.7656 240.562 47.3906C244.938 43.0156 250.75 40.8281 258 40.8281C262.719 40.8281 266.703 41.6719 269.953 43.3594C273.234 45.0469 275.719 47.375 277.406 50.3438C279.125 53.3125 279.984 56.7031 279.984 60.5156C279.984 64.2344 279.031 66.8281 277.125 68.2969C275.219 69.7656 272.438 70.5 268.781 70.5H248.672C248.922 73.7188 250.094 76.1719 252.188 77.8594C254.312 79.5469 257.188 80.3906 260.812 80.3906C263.688 80.3906 265.984 79.9688 267.703 79.125C269.453 78.25 270.672 77.5625 271.359 77.0625C271.953 76.625 272.625 76.4219 273.375 76.4531C273.969 76.4531 274.812 76.5781 275.906 76.8281C277.031 77.0469 278.141 77.4688 279.234 78.0938C280.016 78.5 280.406 79.0625 280.406 79.7812C280.406 80.1875 280.328 80.7656 280.172 81.5156C280.078 81.9531 279.922 82.5938 279.703 83.4375C279.484 84.25 279.203 85.0156 278.859 85.7344C278.672 86.0781 278.375 86.4062 277.969 86.7188C277.344 87.1562 276.328 87.7344 274.922 88.4531C273.547 89.1719 271.656 89.7969 269.25 90.3281C266.844 90.8906 263.797 91.1719 260.109 91.1719ZM248.578 60.8906H263.859C265.453 60.8906 266.25 60.1562 266.25 58.6875C266.25 56.4688 265.547 54.6094 264.141 53.1094C262.766 51.5781 260.688 50.8125 257.906 50.8125C254.875 50.8125 252.641 51.7812 251.203 53.7188C249.797 55.6562 248.922 58.0469 248.578 60.8906Z" fill="#7F35D4"/>
<path d="M305.109 50.9062H305.297C307.641 44.4062 311.859 41.1562 317.953 41.1562C318.734 41.1562 319.375 41.2031 319.875 41.2969C320.375 41.3594 320.719 41.4219 320.906 41.4844C321.375 41.6406 321.609 42 321.609 42.5625V53.8594C321.609 54.8281 321.047 55.0938 319.922 54.6562C319.547 54.5 319 54.3438 318.281 54.1875C317.594 54 316.625 53.9062 315.375 53.9062C312.156 53.9062 309.641 55.0938 307.828 57.4688C306.016 59.8125 305.109 63.0156 305.109 67.0781V87.5156C305.109 88.4531 304.906 89.1094 304.5 89.4844C304.125 89.8281 303.469 90 302.531 90H292.875C291.938 90 291.266 89.8281 290.859 89.4844C290.484 89.1094 290.297 88.4531 290.297 87.5156V48.2344C290.297 47.4844 290.453 46.9062 290.766 46.5C291.422 45.625 292.203 44.7344 293.109 43.8281C294.047 42.9219 295.188 41.9531 296.531 40.9219C296.781 40.7344 297.031 40.6094 297.281 40.5469C297.531 40.4844 297.75 40.4531 297.938 40.4531C298.375 40.4531 298.812 40.6094 299.25 40.9219C301.844 42.9531 303.656 44.6875 304.688 46.125C304.969 46.5 305.109 46.9375 305.109 47.4375V50.9062Z" fill="#7F35D4"/>
<path d="M387.875 24.5625V38.8125H410.062C411.062 38.8125 411.812 38.9792 412.312 39.3125C413.396 40.0625 414.521 40.9583 415.688 42C416.854 43.0417 418.083 44.2917 419.375 45.75C419.792 46.2917 420 46.7292 420 47.0625C420 47.4375 419.792 47.8542 419.375 48.3125C418.083 49.7708 416.854 51.0208 415.688 52.0625C414.521 53.1042 413.396 54 412.312 54.75C411.729 55.0833 410.979 55.25 410.062 55.25H387.875V86.6875C387.875 87.9375 387.604 88.8125 387.062 89.3125C386.562 89.7708 385.688 90 384.438 90H371.125C369.875 90 368.979 89.7708 368.438 89.3125C367.938 88.8125 367.688 87.9375 367.688 86.6875V17.125C367.688 12.9583 368.062 9.66667 368.812 7.25C369.604 4.79167 371.104 3.04167 373.312 2C375.562 0.916667 378.833 0.375 383.125 0.375H412.625C413.625 0.375 414.375 0.541667 414.875 0.875C415.958 1.625 417.083 2.52083 418.25 3.5625C419.417 4.60417 420.646 5.85417 421.938 7.3125C422.354 7.85417 422.562 8.29167 422.562 8.625C422.562 9 422.354 9.41667 421.938 9.875C420.646 11.3333 419.417 12.5833 418.25 13.625C417.083 14.6667 415.958 15.5625 414.875 16.3125C414.292 16.6458 413.542 16.8125 412.625 16.8125H395C392.25 16.8125 390.375 17.3958 389.375 18.5625C388.375 19.7292 387.875 21.7292 387.875 24.5625Z" fill="#7F35D4"/>
<path d="M446.578 50.9062H446.766C449.109 44.4062 453.328 41.1562 459.422 41.1562C460.203 41.1562 460.844 41.2031 461.344 41.2969C461.844 41.3594 462.188 41.4219 462.375 41.4844C462.844 41.6406 463.078 42 463.078 42.5625V53.8594C463.078 54.8281 462.516 55.0938 461.391 54.6562C461.016 54.5 460.469 54.3438 459.75 54.1875C459.062 54 458.094 53.9062 456.844 53.9062C453.625 53.9062 451.109 55.0938 449.297 57.4688C447.484 59.8125 446.578 63.0156 446.578 67.0781V87.5156C446.578 88.4531 446.375 89.1094 445.969 89.4844C445.594 89.8281 444.938 90 444 90H434.344C433.406 90 432.734 89.8281 432.328 89.4844C431.953 89.1094 431.766 88.4531 431.766 87.5156V48.2344C431.766 47.4844 431.922 46.9062 432.234 46.5C432.891 45.625 433.672 44.7344 434.578 43.8281C435.516 42.9219 436.656 41.9531 438 40.9219C438.25 40.7344 438.5 40.6094 438.75 40.5469C439 40.4844 439.219 40.4531 439.406 40.4531C439.844 40.4531 440.281 40.6094 440.719 40.9219C443.312 42.9531 445.125 44.6875 446.156 46.125C446.438 46.5 446.578 46.9375 446.578 47.4375V50.9062Z" fill="#7F35D4"/>
<path d="M493.641 91.1719C488.359 91.1719 483.766 90.3281 479.859 88.6406C475.953 86.9219 472.922 84.2656 470.766 80.6719C468.609 77.0781 467.531 72.4375 467.531 66.75C467.531 58.2188 469.719 51.7656 474.094 47.3906C478.469 43.0156 484.281 40.8281 491.531 40.8281C496.25 40.8281 500.234 41.6719 503.484 43.3594C506.766 45.0469 509.25 47.375 510.938 50.3438C512.656 53.3125 513.516 56.7031 513.516 60.5156C513.516 64.2344 512.562 66.8281 510.656 68.2969C508.75 69.7656 505.969 70.5 502.312 70.5H482.203C482.453 73.7188 483.625 76.1719 485.719 77.8594C487.844 79.5469 490.719 80.3906 494.344 80.3906C497.219 80.3906 499.516 79.9688 501.234 79.125C502.984 78.25 504.203 77.5625 504.891 77.0625C505.484 76.625 506.156 76.4219 506.906 76.4531C507.5 76.4531 508.344 76.5781 509.438 76.8281C510.562 77.0469 511.672 77.4688 512.766 78.0938C513.547 78.5 513.938 79.0625 513.938 79.7812C513.938 80.1875 513.859 80.7656 513.703 81.5156C513.609 81.9531 513.453 82.5938 513.234 83.4375C513.016 84.25 512.734 85.0156 512.391 85.7344C512.203 86.0781 511.906 86.4062 511.5 86.7188C510.875 87.1562 509.859 87.7344 508.453 88.4531C507.078 89.1719 505.188 89.7969 502.781 90.3281C500.375 90.8906 497.328 91.1719 493.641 91.1719ZM482.109 60.8906H497.391C498.984 60.8906 499.781 60.1562 499.781 58.6875C499.781 56.4688 499.078 54.6094 497.672 53.1094C496.297 51.5781 494.219 50.8125 491.438 50.8125C488.406 50.8125 486.172 51.7812 484.734 53.7188C483.328 55.6562 482.453 58.0469 482.109 60.8906Z" fill="#7F35D4"/>
<path d="M547.359 91.1719C542.078 91.1719 537.484 90.3281 533.578 88.6406C529.672 86.9219 526.641 84.2656 524.484 80.6719C522.328 77.0781 521.25 72.4375 521.25 66.75C521.25 58.2188 523.438 51.7656 527.812 47.3906C532.188 43.0156 538 40.8281 545.25 40.8281C549.969 40.8281 553.953 41.6719 557.203 43.3594C560.484 45.0469 562.969 47.375 564.656 50.3438C566.375 53.3125 567.234 56.7031 567.234 60.5156C567.234 64.2344 566.281 66.8281 564.375 68.2969C562.469 69.7656 559.688 70.5 556.031 70.5H535.922C536.172 73.7188 537.344 76.1719 539.438 77.8594C541.562 79.5469 544.438 80.3906 548.062 80.3906C550.938 80.3906 553.234 79.9688 554.953 79.125C556.703 78.25 557.922 77.5625 558.609 77.0625C559.203 76.625 559.875 76.4219 560.625 76.4531C561.219 76.4531 562.062 76.5781 563.156 76.8281C564.281 77.0469 565.391 77.4688 566.484 78.0938C567.266 78.5 567.656 79.0625 567.656 79.7812C567.656 80.1875 567.578 80.7656 567.422 81.5156C567.328 81.9531 567.172 82.5938 566.953 83.4375C566.734 84.25 566.453 85.0156 566.109 85.7344C565.922 86.0781 565.625 86.4062 565.219 86.7188C564.594 87.1562 563.578 87.7344 562.172 88.4531C560.797 89.1719 558.906 89.7969 556.5 90.3281C554.094 90.8906 551.047 91.1719 547.359 91.1719ZM535.828 60.8906H551.109C552.703 60.8906 553.5 60.1562 553.5 58.6875C553.5 56.4688 552.797 54.6094 551.391 53.1094C550.016 51.5781 547.938 50.8125 545.156 50.8125C542.125 50.8125 539.891 51.7812 538.453 53.7188C537.047 55.6562 536.172 58.0469 535.828 60.8906Z" fill="#7F35D4"/>
</svg>
