<svg width="134" height="124" viewBox="0 0 134 124" fill="none" xmlns="http://www.w3.org/2000/svg">
<path d="M84.7986 22.5249H21.2003C15.346 22.5249 10.6002 27.2709 10.6003 33.1252L10.6015 72.8745C10.6016 78.7285 15.3473 83.4741 21.2014 83.4742L84.7999 83.4748C90.6542 83.4749 95.4 78.7336 95.3998 72.8794L95.3986 33.1211C95.3985 27.267 90.6527 22.5249 84.7986 22.5249Z" fill="#7F35D4"/>
<path d="M13.2483 41.0742H92.7483M29.1483 59.6242H42.3983M21.2003 22.5249H84.7986C90.6527 22.5249 95.3985 27.267 95.3986 33.1211L95.3998 72.8794C95.4 78.7336 90.6542 83.4749 84.7999 83.4748L21.2014 83.4742C15.3473 83.4741 10.6016 78.7285 10.6015 72.8745L10.6003 33.1252C10.6002 27.2709 15.346 22.5249 21.2003 22.5249Z" stroke="white" stroke-width="9" stroke-linecap="round" stroke-linejoin="round"/>
<rect width="75" height="75" transform="translate(59 49)" fill="#7F35D4"/>
<path d="M86.5 56.5H73.1667C69.4848 56.5 66.5 59.4848 66.5 63.1667V76.5M86.5 116.5H73.1667C69.4848 116.5 66.5 113.515 66.5 109.833V96.5M106.5 56.5H119.833C123.515 56.5 126.5 59.4848 126.5 63.1667V76.5M126.5 96.5V109.833C126.5 113.515 123.515 116.5 119.833 116.5H106.5M66.5 86.5009H126.5" stroke="white" stroke-width="9" stroke-linecap="round"/>
</svg>
