<svg width="80" height="80" viewBox="0 0 80 80" fill="none" xmlns="http://www.w3.org/2000/svg">
<path d="M66.6667 39.9998C66.6667 47.0723 63.8572 53.855 58.8563 58.856C53.8553 63.857 47.0725 66.6665 40.0001 66.6665C32.9276 66.6665 26.1449 63.857 21.1439 58.856C16.1429 53.855 13.3334 47.0723 13.3334 39.9998C13.3334 32.9274 16.1429 26.1446 21.1439 21.1437C26.1449 16.1427 32.9276 13.3332 40.0001 13.3332C42.5334 13.3332 45.0001 13.6998 47.3334 14.3665L52.5667 9.13317C48.7001 7.53317 44.4667 6.6665 40.0001 6.6665C35.6227 6.6665 31.2882 7.5287 27.244 9.20385C23.1998 10.879 19.5251 13.3343 16.4299 16.4296C10.1786 22.6808 6.66675 31.1593 6.66675 39.9998C6.66675 48.8404 10.1786 57.3188 16.4299 63.5701C19.5251 66.6653 23.1998 69.1207 27.244 70.7958C31.2882 72.471 35.6227 73.3332 40.0001 73.3332C48.8406 73.3332 57.3191 69.8213 63.5703 63.5701C69.8215 57.3188 73.3334 48.8404 73.3334 39.9998M26.3667 33.5998L21.6667 38.3332L36.6667 53.3332L70.0001 19.9998L65.3001 15.2665L36.6667 43.8998L26.3667 33.5998Z" fill="white"/>
</svg>
