<svg width="80" height="80" viewBox="0 0 80 80" fill="none" xmlns="http://www.w3.org/2000/svg">
<path d="M30.0001 20V26.6667H6.66675V20H30.0001ZM30.0001 36.6667V43.3334H6.66675V36.6667H30.0001ZM60.0001 53.3334V60H6.66675V53.3334H60.0001ZM64.3667 38.3334C65.8334 36.0667 66.6668 33.3334 66.6668 30.3667C66.6668 22.0334 60.0001 15.3667 51.6668 15.3667C43.3334 15.3667 36.6667 22.0334 36.6667 30.3667C36.6667 38.7 43.3334 45.3667 51.6668 45.3667C54.5668 45.3667 57.3001 44.5334 59.6001 43.1L70.0001 53.3334L74.6334 48.7L64.3667 38.3334ZM51.6668 38.7C47.0667 38.7 43.3334 35 43.3334 30.3667C43.3334 25.7334 47.0667 22.0334 51.6668 22.0334C56.2668 22.0334 60.0001 25.7667 60.0001 30.3667C60.0001 34.9667 56.2668 38.7 51.6668 38.7Z" fill="white"/>
</svg>
