<svg width="79" height="79" viewBox="0 0 79 79" fill="none" xmlns="http://www.w3.org/2000/svg">
<path d="M37.525 71.0997H17.775C13.4119 71.0997 9.87497 67.5627 9.875 63.1997L9.87531 15.7999C9.87533 11.4368 13.4123 7.8999 17.7753 7.8999H53.3262C57.6892 7.8999 61.2262 11.4369 61.2262 15.7999V31.5999M65.175 65.1749L69.125 69.1249M23.7012 23.6999H47.4012M23.7012 35.5499H47.4012M23.7012 47.3999H35.5512M67.15 57.2749C67.15 62.7287 62.7288 67.1499 57.275 67.1499C51.8212 67.1499 47.4 62.7287 47.4 57.2749C47.4 51.8211 51.8212 47.3999 57.275 47.3999C62.7288 47.3999 67.15 51.8211 67.15 57.2749Z" stroke="white" stroke-width="7" stroke-linecap="round" stroke-linejoin="round"/>
</svg>
