<svg width="80" height="80" viewBox="0 0 80 80" fill="none" xmlns="http://www.w3.org/2000/svg">
<path d="M44.9999 26.6667H39.9999V43.3333L54.2666 51.8L56.6666 47.7667L44.9999 40.8333V26.6667ZM43.3333 10C35.3768 10 27.7461 13.1607 22.12 18.7868C16.494 24.4129 13.3333 32.0435 13.3333 40H3.33325L16.5333 53.4333L29.9999 40H19.9999C19.9999 33.8116 22.4582 27.8767 26.8341 23.5008C31.2099 19.125 37.1449 16.6667 43.3333 16.6667C49.5216 16.6667 55.4566 19.125 59.8324 23.5008C64.2083 27.8767 66.6666 33.8116 66.6666 40C66.6666 46.1884 64.2083 52.1233 59.8324 56.4992C55.4566 60.875 49.5216 63.3333 43.3333 63.3333C36.8999 63.3333 31.0666 60.7 26.8666 56.4667L22.1333 61.2C27.5666 66.6667 34.9999 70 43.3333 70C51.2897 70 58.9204 66.8393 64.5465 61.2132C70.1725 55.5871 73.3333 47.9565 73.3333 40C73.3333 32.0435 70.1725 24.4129 64.5465 18.7868C58.9204 13.1607 51.2897 10 43.3333 10Z" fill="white"/>
</svg>
