<svg width="84" height="84" viewBox="0 0 84 84" fill="none" xmlns="http://www.w3.org/2000/svg">
<path d="M71.3344 38.0625L65.625 32.3571V18.375C65.625 16.2094 63.8531 14.4375 61.6875 14.4375H57.75C55.5844 14.4375 53.8125 16.2094 53.8125 18.375V20.5524L45.9375 12.6853C44.8626 11.6694 43.8782 10.5 42 10.5C40.1218 10.5 39.1374 11.6694 38.0625 12.6853L12.6656 38.0625C11.4371 39.3422 10.5 40.2754 10.5 42C10.5 44.2168 12.201 45.9375 14.4375 45.9375H18.375V69.5625C18.375 71.7281 20.1469 73.5 22.3125 73.5H30.1875C32.3621 73.5 34.125 71.7371 34.125 69.5625V53.8125C34.125 51.6469 35.8969 49.875 38.0625 49.875H45.9375C48.1031 49.875 49.875 51.6469 49.875 53.8125V69.5625C49.875 71.7371 49.6691 73.5 51.8438 73.5H61.6875C63.8531 73.5 65.625 71.7281 65.625 69.5625V45.9375H69.5625C71.799 45.9375 73.5 44.2168 73.5 42C73.5 40.2754 72.5629 39.3422 71.3344 38.0625Z" fill="white" stroke="white" stroke-width="5" stroke-linejoin="round"/>
</svg>
