<svg width="66" height="66" viewBox="0 0 66 66" fill="none" xmlns="http://www.w3.org/2000/svg">
<path d="M32.5935 19.2726C31.356 17.7876 29.149 17.587 27.6641 18.8245C26.1791 20.0619 25.9785 22.2689 27.2159 23.7539L32.5935 19.2726ZM39.0198 32.4514L41.7086 34.692C42.7902 33.3941 42.7902 31.5087 41.7086 30.2107L39.0198 32.4514ZM27.2159 41.1489C25.9785 42.6338 26.1791 44.8408 27.6641 46.0783C29.149 47.3158 31.356 47.1151 32.5935 45.6302L27.2159 41.1489ZM27.2159 23.7539L36.331 34.692L41.7086 30.2107L32.5935 19.2726L27.2159 23.7539ZM36.331 30.2107L27.2159 41.1489L32.5935 45.6302L41.7086 34.692L36.331 30.2107ZM33 11.75C44.7361 11.75 54.25 21.2639 54.25 33L61.25 33C61.25 17.398 48.602 4.75 33 4.75L33 11.75ZM54.25 33C54.25 44.7361 44.7361 54.25 33 54.25L33 61.25C48.602 61.25 61.25 48.602 61.25 33L54.25 33ZM33 54.25C21.2639 54.25 11.75 44.7361 11.75 33L4.75 33C4.75 48.602 17.398 61.25 33 61.25L33 54.25ZM11.75 33C11.75 21.2639 21.2639 11.75 33 11.75L33 4.75C17.398 4.75 4.75 17.398 4.75 33L11.75 33Z" fill="white"/>
</svg>
