<svg width="66" height="66" viewBox="0 0 66 66" fill="none" xmlns="http://www.w3.org/2000/svg">
<path d="M33.4065 19.2726C34.644 17.7876 36.851 17.587 38.3359 18.8245C39.8209 20.0619 40.0215 22.2689 38.7841 23.7539L33.4065 19.2726ZM26.9802 32.4514L24.2914 34.692C23.2098 33.3941 23.2098 31.5087 24.2914 30.2107L26.9802 32.4514ZM38.7841 41.1489C40.0215 42.6338 39.8209 44.8408 38.3359 46.0783C36.851 47.3158 34.644 47.1151 33.4065 45.6302L38.7841 41.1489ZM38.7841 23.7539L29.669 34.692L24.2914 30.2107L33.4065 19.2726L38.7841 23.7539ZM29.669 30.2107L38.7841 41.1489L33.4065 45.6302L24.2914 34.692L29.669 30.2107ZM33 11.75C21.2639 11.75 11.75 21.2639 11.75 33L4.75 33C4.75 17.398 17.398 4.75 33 4.75L33 11.75ZM11.75 33C11.75 44.7361 21.2639 54.25 33 54.25L33 61.25C17.398 61.25 4.75 48.602 4.75 33L11.75 33ZM33 54.25C44.7361 54.25 54.25 44.7361 54.25 33L61.25 33C61.25 48.602 48.602 61.25 33 61.25L33 54.25ZM54.25 33C54.25 21.2639 44.7361 11.75 33 11.75L33 4.75C48.602 4.75 61.25 17.398 61.25 33L54.25 33Z" fill="white"/>
</svg>
