<svg width="80" height="80" viewBox="0 0 80 80" fill="none" xmlns="http://www.w3.org/2000/svg">
<path d="M73.3334 39.9998C73.3334 48.8404 69.8215 57.3188 63.5703 63.5701C57.3191 69.8213 48.8406 73.3332 40.0001 73.3332C35.6227 73.3332 31.2882 72.471 27.244 70.7958C23.1998 69.1207 19.5251 66.6653 16.4299 63.5701C10.1786 57.3188 6.66675 48.8404 6.66675 39.9998C6.66675 31.1593 10.1786 22.6808 16.4299 16.4296C22.6811 10.1784 31.1595 6.6665 40.0001 6.6665C44.3775 6.6665 48.712 7.5287 52.7562 9.20385C56.8004 10.879 60.475 13.3343 63.5703 16.4296C66.6656 19.5249 69.1209 23.1995 70.7961 27.2437C72.4712 31.2879 73.3334 35.6224 73.3334 39.9998ZM51.3334 55.3332L36.0001 39.9998L51.3334 24.6665L46.6667 19.9998L26.6667 39.9998L46.6667 59.9998L51.3334 55.3332Z" fill="white"/>
</svg>
