<svg width="80" height="80" viewBox="0 0 80 80" fill="none" xmlns="http://www.w3.org/2000/svg">
<g clip-path="url(#clip0_364_1734)">
<path d="M13.3333 13.3333H33.3333V33.3333H13.3333V13.3333ZM66.6667 13.3333V33.3333H46.6667V13.3333H66.6667ZM46.6667 50H53.3333V43.3333H46.6667V36.6667H53.3333V43.3333H60V36.6667H66.6667V43.3333H60V50H66.6667V60H60V66.6667H53.3333V60H43.3333V66.6667H36.6667V53.3333H46.6667V50ZM53.3333 50V60H60V50H53.3333ZM13.3333 66.6667V46.6667H33.3333V66.6667H13.3333ZM20 20V26.6667H26.6667V20H20ZM53.3333 20V26.6667H60V20H53.3333ZM20 53.3333V60H26.6667V53.3333H20ZM13.3333 36.6667H20V43.3333H13.3333V36.6667ZM30 36.6667H43.3333V50H36.6667V43.3333H30V36.6667ZM36.6667 20H43.3333V33.3333H36.6667V20ZM6.66667 6.66667V20H0V6.66667C0 4.89856 0.702379 3.20286 1.95262 1.95262C3.20286 0.702379 4.89856 0 6.66667 0L20 0V6.66667H6.66667ZM73.3333 0C75.1014 0 76.7971 0.702379 78.0474 1.95262C79.2976 3.20286 80 4.89856 80 6.66667V20H73.3333V6.66667H60V0H73.3333ZM6.66667 60V73.3333H20V80H6.66667C4.89856 80 3.20286 79.2976 1.95262 78.0474C0.702379 76.7971 0 75.1014 0 73.3333V60H6.66667ZM73.3333 73.3333V60H80V73.3333C80 75.1014 79.2976 76.7971 78.0474 78.0474C76.7971 79.2976 75.1014 80 73.3333 80H60V73.3333H73.3333Z" fill="white"/>
</g>
<defs>
<clipPath id="clip0_364_1734">
<rect width="80" height="80" fill="white"/>
</clipPath>
</defs>
</svg>
