<svg width="80" height="80" viewBox="0 0 80 80" fill="none" xmlns="http://www.w3.org/2000/svg">
<g clip-path="url(#clip0_374_1780)">
<path d="M35.4333 47.0002C40.7666 35.2668 54.5999 30.1002 66.3332 35.4335C78.0666 40.7668 83.2333 54.6002 77.8999 66.3335C74.1333 74.6668 65.8333 80.0002 56.6666 80.0002C47.6666 80.0002 39.4333 74.8002 35.5666 66.6668H3.33325V60.0002C3.53325 56.2002 6.13325 53.1002 11.1333 50.6002C16.1333 48.1002 22.3999 46.8002 29.9999 46.6668C31.8999 46.6668 33.6999 46.8335 35.4333 47.0002ZM29.9999 13.3335C33.7333 13.4335 36.8666 14.7335 39.3666 17.2335C41.8666 19.7335 43.0999 22.8668 43.0999 26.6668C43.0999 30.4668 41.8666 33.6002 39.3666 36.1002C36.8666 38.6002 33.7333 39.8335 29.9999 39.8335C26.2666 39.8335 23.1333 38.6002 20.6333 36.1002C18.1333 33.6002 16.8999 30.4668 16.8999 26.6668C16.8999 22.8668 18.1333 19.7335 20.6333 17.2335C23.1333 14.7335 26.2666 13.4335 29.9999 13.3335ZM56.6666 73.3335C61.0869 73.3335 65.3261 71.5775 68.4517 68.4519C71.5773 65.3263 73.3333 61.0871 73.3333 56.6668C73.3333 52.2466 71.5773 48.0073 68.4517 44.8817C65.3261 41.7561 61.0869 40.0002 56.6666 40.0002C52.2463 40.0002 48.0071 41.7561 44.8815 44.8817C41.7559 48.0073 39.9999 52.2466 39.9999 56.6668C39.9999 61.0871 41.7559 65.3263 44.8815 68.4519C48.0071 71.5775 52.2463 73.3335 56.6666 73.3335ZM53.3333 46.6668H58.3333V56.0668L66.4666 60.7668L63.9666 65.1002L53.3333 58.9668V46.6668Z" fill="white"/>
</g>
<defs>
<clipPath id="clip0_374_1780">
<rect width="80" height="80" fill="white"/>
</clipPath>
</defs>
</svg>
