<svg width="90" height="90" viewBox="0 0 90 90" fill="none" xmlns="http://www.w3.org/2000/svg">
<path d="M43.875 33.4875L52.95 24.375H31.875V37.5H26.25V18.75H52.95L43.875 9.6375L47.85 5.625L63.75 21.5625L47.85 37.5L43.875 33.4875ZM45 52.5C47.225 52.5 49.4001 53.1598 51.2502 54.396C53.1002 55.6321 54.5422 57.3891 55.3936 59.4448C56.2451 61.5005 56.4679 63.7625 56.0338 65.9448C55.5998 68.1271 54.5283 70.1316 52.955 71.705C51.3816 73.2783 49.3771 74.3498 47.1948 74.7838C45.0125 75.2179 42.7505 74.9951 40.6948 74.1436C38.6391 73.2922 36.8821 71.8502 35.646 70.0002C34.4098 68.1501 33.75 65.975 33.75 63.75C33.75 60.7663 34.9353 57.9048 37.045 55.795C39.1548 53.6853 42.0163 52.5 45 52.5ZM78.75 41.25V86.25H11.25V41.25M18.75 71.25C20.7391 71.25 22.6468 72.0402 24.0533 73.4467C25.4598 74.8532 26.25 76.7609 26.25 78.75H63.75C63.75 76.7609 64.5402 74.8532 65.9467 73.4467C67.3532 72.0402 69.2609 71.25 71.25 71.25V56.25C69.2609 56.25 67.3532 55.4598 65.9467 54.0533C64.5402 52.6468 63.75 50.7391 63.75 48.75H26.25C26.25 50.7391 25.4598 52.6468 24.0533 54.0533C22.6468 55.4598 20.7391 56.25 18.75 56.25V71.25Z" fill="white"/>
</svg>
