<svg width="146" height="73" viewBox="0 0 146 73" fill="none" xmlns="http://www.w3.org/2000/svg">
<path d="M99.5 4C99.5 2.067 97.933 0.5 96 0.5C94.067 0.5 92.5 2.067 92.5 4V10.8765C77.958 0.442042 57.3364 2.14455 44.7783 15.984C43.665 17.211 43.7571 19.1083 44.9841 20.2217C46.2111 21.3351 48.1083 21.243 49.2217 20.016C59.5869 8.59305 76.5413 7.08773 88.6432 15.5L81 15.5C79.067 15.5 77.5 17.067 77.5 19C77.5 20.933 79.067 22.5 81 22.5H96C97.933 22.5 99.5 20.933 99.5 19V4Z" fill="white"/>
<path d="M20.7037 6.33333C22.6367 6.33333 24.2037 7.90034 24.2037 9.83333V16.0556H27.1852C27.2355 16.0556 27.2859 16.0566 27.3362 16.0588C29.9729 16.1727 32.5153 17.073 34.636 18.6439C36.7568 20.2148 38.3589 22.3845 39.2362 24.8736C39.8787 26.6967 38.9217 28.6955 37.0986 29.338C35.2755 29.9806 33.2767 29.0235 32.6342 27.2004C32.2214 26.0291 31.4674 25.0081 30.4694 24.2688C29.4894 23.5429 28.3181 23.1213 27.1013 23.0556H14.2222C12.572 23.0556 10.9893 23.7111 9.82245 24.878C8.65555 26.0449 8 27.6275 8 29.2778C8 30.928 8.65555 32.5107 9.82245 33.6776C10.9893 34.8444 12.572 35.5 14.2222 35.5H27.1852C30.6919 35.5 34.0551 36.8931 36.5347 39.3727C39.0144 41.8523 40.4074 45.2155 40.4074 48.7222C40.4074 52.229 39.0144 55.5921 36.5347 58.0717C34.0551 60.5514 30.6919 61.9444 27.1852 61.9444H24.2037V68.1667C24.2037 70.0997 22.6367 71.6667 20.7037 71.6667C18.7707 71.6667 17.2037 70.0997 17.2037 68.1667V61.9444H14.2222C14.1719 61.9444 14.1215 61.9434 14.0712 61.9412C11.4345 61.8273 8.89213 60.927 6.77138 59.3561C4.65063 57.7851 3.04852 55.6155 2.17124 53.1264C1.52871 51.3033 2.48573 49.3045 4.30881 48.662C6.1319 48.0194 8.13067 48.9765 8.7732 50.7996C9.18604 51.9709 9.93997 52.9919 10.938 53.7312C11.918 54.4571 13.0893 54.8787 14.3061 54.9444H27.1852C28.8354 54.9444 30.4181 54.2889 31.585 53.122C32.7519 51.9551 33.4074 50.3725 33.4074 48.7222C33.4074 47.072 32.7519 45.4893 31.585 44.3224C30.4181 43.1556 28.8354 42.5 27.1852 42.5H14.2222C10.7155 42.5 7.35235 41.1069 4.8727 38.6273C2.39305 36.1477 1 32.7845 1 29.2778C1 25.771 2.39305 22.4079 4.8727 19.9283C7.35235 17.4486 10.7155 16.0556 14.2222 16.0556H17.2037V9.83333C17.2037 7.90034 18.7707 6.33333 20.7037 6.33333Z" fill="white"/>
<path d="M128.95 23.75C128.95 28.9691 124.719 33.2 119.5 33.2C114.281 33.2 110.05 28.9691 110.05 23.75C110.05 18.5309 114.281 14.3 119.5 14.3C124.719 14.3 128.95 18.5309 128.95 23.75Z" fill="white"/>
<path d="M94.3 61.8451C94.3 51.9343 102.58 43.9 119.5 43.9C136.42 43.9 144.7 51.9343 144.7 61.8451C144.7 63.4218 143.55 64.7 142.131 64.7H96.8694C95.4504 64.7 94.3 63.4218 94.3 61.8451Z" fill="white"/>
<path d="M99.5 4C99.5 2.067 97.933 0.5 96 0.5C94.067 0.5 92.5 2.067 92.5 4V10.8765C77.958 0.442042 57.3364 2.14455 44.7783 15.984C43.665 17.211 43.7571 19.1083 44.9841 20.2217C46.2111 21.3351 48.1083 21.243 49.2217 20.016C59.5869 8.59305 76.5413 7.08773 88.6432 15.5L81 15.5C79.067 15.5 77.5 17.067 77.5 19C77.5 20.933 79.067 22.5 81 22.5H96C97.933 22.5 99.5 20.933 99.5 19V4Z" stroke="white" stroke-linecap="round"/>
<path d="M20.7037 6.33333C22.6367 6.33333 24.2037 7.90034 24.2037 9.83333V16.0556H27.1852C27.2355 16.0556 27.2859 16.0566 27.3362 16.0588C29.9729 16.1727 32.5153 17.073 34.636 18.6439C36.7568 20.2148 38.3589 22.3845 39.2362 24.8736C39.8787 26.6967 38.9217 28.6955 37.0986 29.338C35.2755 29.9806 33.2767 29.0235 32.6342 27.2004C32.2214 26.0291 31.4674 25.0081 30.4694 24.2688C29.4894 23.5429 28.3181 23.1213 27.1013 23.0556H14.2222C12.572 23.0556 10.9893 23.7111 9.82245 24.878C8.65555 26.0449 8 27.6275 8 29.2778C8 30.928 8.65555 32.5107 9.82245 33.6776C10.9893 34.8444 12.572 35.5 14.2222 35.5H27.1852C30.6919 35.5 34.0551 36.8931 36.5347 39.3727C39.0144 41.8523 40.4074 45.2155 40.4074 48.7222C40.4074 52.229 39.0144 55.5921 36.5347 58.0717C34.0551 60.5514 30.6919 61.9444 27.1852 61.9444H24.2037V68.1667C24.2037 70.0997 22.6367 71.6667 20.7037 71.6667C18.7707 71.6667 17.2037 70.0997 17.2037 68.1667V61.9444H14.2222C14.1719 61.9444 14.1215 61.9434 14.0712 61.9412C11.4345 61.8273 8.89213 60.927 6.77138 59.3561C4.65063 57.7851 3.04852 55.6155 2.17124 53.1264C1.52871 51.3033 2.48573 49.3045 4.30881 48.662C6.1319 48.0194 8.13067 48.9765 8.7732 50.7996C9.18604 51.9709 9.93997 52.9919 10.938 53.7312C11.918 54.4571 13.0893 54.8787 14.3061 54.9444H27.1852C28.8354 54.9444 30.4181 54.2889 31.585 53.122C32.7519 51.9551 33.4074 50.3725 33.4074 48.7222C33.4074 47.072 32.7519 45.4893 31.585 44.3224C30.4181 43.1556 28.8354 42.5 27.1852 42.5H14.2222C10.7155 42.5 7.35235 41.1069 4.8727 38.6273C2.39305 36.1477 1 32.7845 1 29.2778C1 25.771 2.39305 22.4079 4.8727 19.9283C7.35235 17.4486 10.7155 16.0556 14.2222 16.0556H17.2037V9.83333C17.2037 7.90034 18.7707 6.33333 20.7037 6.33333Z" stroke="white" stroke-linecap="round"/>
<path d="M128.95 23.75C128.95 28.9691 124.719 33.2 119.5 33.2C114.281 33.2 110.05 28.9691 110.05 23.75C110.05 18.5309 114.281 14.3 119.5 14.3C124.719 14.3 128.95 18.5309 128.95 23.75Z" stroke="white" stroke-linecap="round"/>
<path d="M94.3 61.8451C94.3 51.9343 102.58 43.9 119.5 43.9C136.42 43.9 144.7 51.9343 144.7 61.8451C144.7 63.4218 143.55 64.7 142.131 64.7H96.8694C95.4504 64.7 94.3 63.4218 94.3 61.8451Z" stroke="white" stroke-linecap="round"/>
</svg>
