<svg width="115" height="95" viewBox="0 0 115 95" fill="none" xmlns="http://www.w3.org/2000/svg">
<g clip-path="url(#clip0_308_1748)">
<path d="M38.0001 47.4998C43.2468 47.4998 47.5001 43.2465 47.5001 37.9998C47.5001 32.7531 43.2468 28.4998 38.0001 28.4998C32.7534 28.4998 28.5001 32.7531 28.5001 37.9998C28.5001 43.2465 32.7534 47.4998 38.0001 47.4998Z" stroke="white" stroke-width="9" stroke-linecap="round" stroke-linejoin="round"/>
<path d="M61.4334 47.4998C61.0119 48.455 60.8861 49.5145 61.0724 50.5417C61.2587 51.569 61.7484 52.5169 62.4784 53.2632L62.6684 53.4532C63.2573 54.0414 63.7244 54.7399 64.0431 55.5087C64.3619 56.2776 64.5259 57.1017 64.5259 57.934C64.5259 58.7663 64.3619 59.5904 64.0431 60.3593C63.7244 61.1282 63.2573 61.8266 62.6684 62.4148C62.0802 63.0037 61.3817 63.4708 60.6129 63.7896C59.844 64.1083 59.0199 64.2723 58.1876 64.2723C57.3553 64.2723 56.5312 64.1083 55.7623 63.7896C54.9934 63.4708 54.2949 63.0037 53.7068 62.4148L53.5168 62.2248C52.7704 61.4948 51.8225 61.0051 50.7953 60.8188C49.768 60.6326 48.7085 60.7583 47.7534 61.1798C46.8168 61.5813 46.018 62.2478 45.4554 63.0974C44.8928 63.947 44.5908 64.9425 44.5868 65.9615V66.4998C44.5868 68.1795 43.9195 69.7905 42.7318 70.9782C41.544 72.1659 39.9331 72.8332 38.2534 72.8332C36.5737 72.8332 34.9628 72.1659 33.7751 70.9782C32.5873 69.7905 31.9201 68.1795 31.9201 66.4998V66.2148C31.8956 65.1667 31.5563 64.1502 30.9464 63.2974C30.3364 62.4446 29.4841 61.7951 28.5001 61.4332C27.545 61.0116 26.4855 60.8859 25.4582 61.0722C24.431 61.2584 23.4831 61.7481 22.7367 62.4782L22.5467 62.6682C21.9586 63.257 21.2601 63.7242 20.4912 64.0429C19.7224 64.3616 18.8982 64.5257 18.0659 64.5257C17.2336 64.5257 16.4095 64.3616 15.6406 64.0429C14.8718 63.7242 14.1733 63.257 13.5851 62.6682C12.9962 62.08 12.5291 61.3815 12.2104 60.6126C11.8916 59.8438 11.7276 59.0196 11.7276 58.1873C11.7276 57.355 11.8916 56.5309 12.2104 55.7621C12.5291 54.9932 12.9962 54.2947 13.5851 53.7065L13.7751 53.5165C14.5051 52.7702 14.9948 51.8223 15.1811 50.795C15.3674 49.7678 15.2416 48.7083 14.8201 47.7532C14.4187 46.8166 13.7521 46.0178 12.9026 45.4551C12.053 44.8925 11.0574 44.5906 10.0384 44.5865H9.50008C7.82038 44.5865 6.20947 43.9192 5.02174 42.7315C3.83401 41.5438 3.16675 39.9329 3.16675 38.2532C3.16675 36.5735 3.83401 34.9626 5.02174 33.7748C6.20947 32.5871 7.82038 31.9198 9.50008 31.9198H9.78508C10.8332 31.8953 11.8498 31.556 12.7025 30.9461C13.5553 30.3362 14.2048 29.4838 14.5667 28.4998C14.9883 27.5447 15.114 26.4852 14.9278 25.458C14.7415 24.4307 14.2518 23.4828 13.5217 22.7365L13.3317 22.5465C12.7429 21.9583 12.2758 21.2598 11.957 20.491C11.6383 19.7221 11.4743 18.898 11.4743 18.0657C11.4743 17.2334 11.6383 16.4092 11.957 15.6404C12.2758 14.8715 12.7429 14.173 13.3317 13.5848C13.9199 12.996 14.6184 12.5288 15.3873 12.2101C16.1561 11.8914 16.9803 11.7274 17.8126 11.7274C18.6449 11.7274 19.469 11.8914 20.2379 12.2101C21.0067 12.5288 21.7052 12.996 22.2934 13.5848L22.4834 13.7748C23.2297 14.5049 24.1776 14.9946 25.2049 15.1809C26.2321 15.3671 27.2916 15.2414 28.2468 14.8198H28.5001C29.4367 14.4184 30.2355 13.7519 30.7981 12.9023C31.3608 12.0527 31.6627 11.0572 31.6668 10.0382V9.49984C31.6668 7.82013 32.334 6.20923 33.5217 5.02149C34.7095 3.83376 36.3204 3.1665 38.0001 3.1665C39.6798 3.1665 41.2907 3.83376 42.4784 5.02149C43.6662 6.20923 44.3334 7.82013 44.3334 9.49984V9.78484C44.3375 10.8038 44.6394 11.7994 45.2021 12.649C45.7647 13.4986 46.5635 14.1651 47.5001 14.5665C48.4552 14.988 49.5147 15.1138 50.5419 14.9275C51.5692 14.7413 52.5171 14.2515 53.2634 13.5215L53.4534 13.3315C54.0416 12.7427 54.7401 12.2755 55.509 11.9568C56.2778 11.6381 57.102 11.474 57.9343 11.474C58.7666 11.474 59.5907 11.6381 60.3595 11.9568C61.1284 12.2755 61.8269 12.7427 62.4151 13.3315C63.0039 13.9197 63.4711 14.6182 63.7898 15.387C64.1085 16.1559 64.2726 16.98 64.2726 17.8123C64.2726 18.6446 64.1085 19.4688 63.7898 20.2376C63.4711 21.0065 63.0039 21.705 62.4151 22.2932L62.2251 22.4832C61.4951 23.2295 61.0053 24.1774 60.8191 25.2046C60.6328 26.2319 60.7586 27.2914 61.1801 28.2465V28.4998C61.5815 29.4364 62.248 30.2352 63.0976 30.7979C63.9472 31.3605 64.9428 31.6624 65.9618 31.6665H66.5001C68.1798 31.6665 69.7907 32.3338 70.9784 33.5215C72.1662 34.7092 72.8334 36.3201 72.8334 37.9998C72.8334 39.6795 72.1662 41.2905 70.9784 42.4782C69.7907 43.6659 68.1798 44.3332 66.5001 44.3332H66.2151C65.1961 44.3372 64.2005 44.6392 63.3509 45.2018C62.5014 45.7645 61.8348 46.5632 61.4334 47.4998Z" stroke="white" stroke-width="9" stroke-linecap="round" stroke-linejoin="round"/>
</g>
<g clip-path="url(#clip1_308_1748)">
<rect width="61" height="61" transform="translate(54 34)" fill="#7F35D4"/>
<path d="M84.5001 72.1248C88.7113 72.1248 92.1251 68.711 92.1251 64.4998C92.1251 60.2887 88.7113 56.8748 84.5001 56.8748C80.2889 56.8748 76.8751 60.2887 76.8751 64.4998C76.8751 68.711 80.2889 72.1248 84.5001 72.1248Z" stroke="white" stroke-width="7" stroke-linecap="round" stroke-linejoin="round"/>
<path d="M103.308 72.1248C102.97 72.8914 102.869 73.7418 103.019 74.5663C103.168 75.3908 103.561 76.1516 104.147 76.7507L104.3 76.9032C104.772 77.3753 105.147 77.9359 105.403 78.553C105.659 79.1701 105.791 79.8316 105.791 80.4996C105.791 81.1677 105.659 81.8291 105.403 82.4462C105.147 83.0633 104.772 83.624 104.3 84.0961C103.828 84.5687 103.267 84.9437 102.65 85.1995C102.033 85.4553 101.371 85.587 100.703 85.587C100.035 85.587 99.3737 85.4553 98.7566 85.1995C98.1395 84.9437 97.5788 84.5687 97.1067 84.0961L96.9542 83.9436C96.3552 83.3576 95.5944 82.9646 94.7699 82.8151C93.9454 82.6656 93.095 82.7665 92.3284 83.1048C91.5767 83.427 90.9355 83.962 90.4839 84.6439C90.0324 85.3258 89.79 86.1249 89.7867 86.9428V87.3748C89.7867 88.723 89.2512 90.016 88.2979 90.9693C87.3446 91.9226 86.0516 92.4582 84.7034 92.4582C83.3552 92.4582 82.0623 91.9226 81.109 90.9693C80.1556 90.016 79.6201 88.723 79.6201 87.3748V87.1461C79.6004 86.3048 79.3281 85.4889 78.8385 84.8044C78.349 84.12 77.6649 83.5986 76.8751 83.3082C76.1085 82.9698 75.2581 82.8689 74.4336 83.0184C73.6091 83.1679 72.8483 83.561 72.2492 84.1469L72.0967 84.2994C71.6246 84.7721 71.064 85.147 70.4469 85.4028C69.8298 85.6586 69.1683 85.7903 68.5003 85.7903C67.8323 85.7903 67.1708 85.6586 66.5537 85.4028C65.9366 85.147 65.3759 84.7721 64.9038 84.2994C64.4312 83.8273 64.0563 83.2667 63.8004 82.6496C63.5446 82.0325 63.413 81.371 63.413 80.703C63.413 80.0349 63.5446 79.3735 63.8004 78.7563C64.0563 78.1392 64.4312 77.5786 64.9038 77.1065L65.0563 76.954C65.6423 76.355 66.0353 75.5942 66.1848 74.7697C66.3343 73.9452 66.2334 73.0948 65.8951 72.3282C65.5729 71.5764 65.0379 70.9353 64.356 70.4837C63.6741 70.0321 62.875 69.7898 62.0572 69.7865H61.6251C60.2769 69.7865 58.9839 69.2509 58.0306 68.2976C57.0773 67.3443 56.5417 66.0514 56.5417 64.7032C56.5417 63.355 57.0773 62.062 58.0306 61.1087C58.9839 60.1554 60.2769 59.6198 61.6251 59.6198H61.8538C62.6951 59.6002 63.511 59.3278 64.1955 58.8383C64.8799 58.3488 65.4013 57.6646 65.6917 56.8748C66.0301 56.1082 66.131 55.2578 65.9815 54.4333C65.832 53.6088 65.4389 52.848 64.853 52.249L64.7005 52.0965C64.2279 51.6244 63.8529 51.0638 63.5971 50.4467C63.3413 49.8296 63.2096 49.1681 63.2096 48.5C63.2096 47.832 63.3413 47.1705 63.5971 46.5534C63.8529 45.9363 64.2279 45.3757 64.7005 44.9036C65.1726 44.431 65.7332 44.056 66.3503 43.8002C66.9674 43.5444 67.6289 43.4127 68.297 43.4127C68.965 43.4127 69.6265 43.5444 70.2436 43.8002C70.8607 44.056 71.4213 44.431 71.8934 44.9036L72.0459 45.0561C72.6449 45.642 73.4057 46.0351 74.2303 46.1846C75.0548 46.3341 75.9051 46.2332 76.6717 45.8948H76.8751C77.6268 45.5726 78.268 45.0377 78.7195 44.3558C79.1711 43.6739 79.4135 42.8748 79.4167 42.0569V41.6248C79.4167 40.2767 79.9523 38.9837 80.9056 38.0304C81.8589 37.0771 83.1519 36.5415 84.5001 36.5415C85.8483 36.5415 87.1412 37.0771 88.0945 38.0304C89.0478 38.9837 89.5834 40.2767 89.5834 41.6248V41.8536C89.5867 42.6715 89.829 43.4705 90.2806 44.1524C90.7322 44.8343 91.3733 45.3693 92.1251 45.6915C92.8917 46.0298 93.7421 46.1308 94.5666 45.9813C95.3911 45.8318 96.1519 45.4387 96.7509 44.8528L96.9034 44.7003C97.3755 44.2276 97.9362 43.8527 98.5533 43.5969C99.1704 43.3411 99.8318 43.2094 100.5 43.2094C101.168 43.2094 101.829 43.3411 102.446 43.5969C103.064 43.8527 103.624 44.2276 104.096 44.7003C104.569 45.1724 104.944 45.733 105.2 46.3501C105.456 46.9672 105.587 47.6287 105.587 48.2967C105.587 48.9647 105.456 49.6262 105.2 50.2433C104.944 50.8604 104.569 51.4211 104.096 51.8932L103.944 52.0457C103.358 52.6447 102.965 53.4055 102.815 54.23C102.666 55.0545 102.767 55.9049 103.105 56.6715V56.8748C103.427 57.6266 103.962 58.2677 104.644 58.7193C105.326 59.1709 106.125 59.4132 106.943 59.4165H107.375C108.723 59.4165 110.016 59.9521 110.97 60.9054C111.923 61.8587 112.458 63.1517 112.458 64.4998C112.458 65.848 111.923 67.141 110.97 68.0943C110.016 69.0476 108.723 69.5832 107.375 69.5832H107.146C106.328 69.5864 105.529 69.8288 104.847 70.2804C104.166 70.732 103.631 71.3731 103.308 72.1248Z" stroke="white" stroke-width="7" stroke-linecap="round" stroke-linejoin="round"/>
</g>
<defs>
<clipPath id="clip0_308_1748">
<rect width="76" height="76" fill="white"/>
</clipPath>
<clipPath id="clip1_308_1748">
<rect width="61" height="61" fill="white" transform="translate(54 34)"/>
</clipPath>
</defs>
</svg>
