<svg width="80" height="80" viewBox="0 0 80 80" fill="none" xmlns="http://www.w3.org/2000/svg">
<path d="M40 51.6665C36.9058 51.6665 33.9383 50.4373 31.7504 48.2494C29.5624 46.0615 28.3333 43.094 28.3333 39.9998C28.3333 36.9056 29.5624 33.9382 31.7504 31.7503C33.9383 29.5623 36.9058 28.3332 40 28.3332C43.0941 28.3332 46.0616 29.5623 48.2495 31.7503C50.4375 33.9382 51.6666 36.9056 51.6666 39.9998C51.6666 43.094 50.4375 46.0615 48.2495 48.2494C46.0616 50.4373 43.0941 51.6665 40 51.6665ZM64.7666 43.2332C64.9 42.1665 65 41.0998 65 39.9998C65 38.8998 64.9 37.7998 64.7666 36.6665L71.8 31.2332C72.4333 30.7332 72.6 29.8332 72.2 29.0998L65.5333 17.5665C65.1333 16.8332 64.2333 16.5332 63.5 16.8332L55.2 20.1665C53.4666 18.8665 51.6666 17.7332 49.5666 16.8998L48.3333 8.0665C48.2 7.2665 47.5 6.6665 46.6666 6.6665H33.3333C32.5 6.6665 31.8 7.2665 31.6666 8.0665L30.4333 16.8998C28.3333 17.7332 26.5333 18.8665 24.8 20.1665L16.5 16.8332C15.7666 16.5332 14.8666 16.8332 14.4666 17.5665L7.79995 29.0998C7.36662 29.8332 7.56662 30.7332 8.19995 31.2332L15.2333 36.6665C15.1 37.7998 15 38.8998 15 39.9998C15 41.0998 15.1 42.1665 15.2333 43.2332L8.19995 48.7665C7.56662 49.2665 7.36662 50.1665 7.79995 50.8998L14.4666 62.4332C14.8666 63.1665 15.7666 63.4332 16.5 63.1665L24.8 59.7998C26.5333 61.1332 28.3333 62.2665 30.4333 63.0998L31.6666 71.9332C31.8 72.7332 32.5 73.3332 33.3333 73.3332H46.6666C47.5 73.3332 48.2 72.7332 48.3333 71.9332L49.5666 63.0998C51.6666 62.2332 53.4666 61.1332 55.2 59.7998L63.5 63.1665C64.2333 63.4332 65.1333 63.1665 65.5333 62.4332L72.2 50.8998C72.6 50.1665 72.4333 49.2665 71.8 48.7665L64.7666 43.2332Z" fill="white"/>
</svg>
