<svg width="80" height="80" viewBox="0 0 80 80" fill="none" xmlns="http://www.w3.org/2000/svg">
<path d="M52.5 10.0001V70.0001C52.4996 70.4679 52.3681 70.9262 52.1202 71.3229C51.8723 71.7196 51.5181 72.0389 51.0978 72.2443C50.6775 72.4497 50.208 72.5331 49.7427 72.4849C49.2774 72.4368 48.8349 72.2591 48.4656 71.972L26.6406 55.0001H12.5C11.1739 55.0001 9.90215 54.4733 8.96447 53.5356C8.02678 52.5979 7.5 51.3262 7.5 50.0001V30.0001C7.5 28.674 8.02678 27.4022 8.96447 26.4645C9.90215 25.5269 11.1739 25.0001 12.5 25.0001H26.6406L48.4656 8.0282C48.8349 7.74109 49.2774 7.56337 49.7427 7.51523C50.208 7.46709 50.6775 7.55047 51.0978 7.75589C51.5181 7.96131 51.8723 8.28052 52.1202 8.67725C52.3681 9.07397 52.4996 9.53228 52.5 10.0001ZM62.5 30.0001C61.837 30.0001 61.2011 30.2635 60.7322 30.7323C60.2634 31.2012 60 31.837 60 32.5001V47.5001C60 48.1631 60.2634 48.799 60.7322 49.2678C61.2011 49.7367 61.837 50.0001 62.5 50.0001C63.163 50.0001 63.7989 49.7367 64.2678 49.2678C64.7366 48.799 65 48.1631 65 47.5001V32.5001C65 31.837 64.7366 31.2012 64.2678 30.7323C63.7989 30.2635 63.163 30.0001 62.5 30.0001ZM72.5 25.0001C71.837 25.0001 71.2011 25.2635 70.7322 25.7323C70.2634 26.2012 70 26.837 70 27.5001V52.5001C70 53.1631 70.2634 53.799 70.7322 54.2678C71.2011 54.7367 71.837 55.0001 72.5 55.0001C73.163 55.0001 73.7989 54.7367 74.2678 54.2678C74.7366 53.799 75 53.1631 75 52.5001V27.5001C75 26.837 74.7366 26.2012 74.2678 25.7323C73.7989 25.2635 73.163 25.0001 72.5 25.0001Z" fill="white"/>
</svg>
